<svg width="18" height="18" viewBox="0 0 18 18" fill="none" xmlns="http://www.w3.org/2000/svg">
    <path 
        d="M9.9375 8.99999C9.9375 9.18541 9.88252 9.36667 9.7795 9.52084C9.67649 9.67501 9.53007 9.79517 9.35877 9.86613C9.18746 9.93709 8.99896 9.95565 8.8171 9.91948C8.63525 9.88331 8.4682 9.79402 8.33709 9.66291C8.20598 9.53179 8.11669 9.36475 8.08051 9.18289C8.04434 9.00103 8.06291 8.81253 8.13386 8.64123C8.20482 8.46992 8.32498 8.3235 8.47915 8.22049C8.63332 8.11748 8.81458 8.06249 9 8.06249C9.24864 8.06249 9.4871 8.16127 9.66291 8.33708C9.83873 8.5129 9.9375 8.75135 9.9375 8.99999ZM5.5625 8.06249C5.37708 8.06249 5.19582 8.11748 5.04165 8.22049C4.88748 8.3235 4.76732 8.46992 4.69636 8.64123C4.62541 8.81253 4.60684 9.00103 4.64301 9.18289C4.67919 9.36475 4.76848 9.53179 4.89959 9.66291C5.0307 9.79402 5.19775 9.88331 5.3796 9.91948C5.56146 9.95565 5.74996 9.93709 5.92127 9.86613C6.09257 9.79517 6.23899 9.67501 6.342 9.52084C6.44502 9.36667 6.5 9.18541 6.5 8.99999C6.5 8.75135 6.40123 8.5129 6.22541 8.33708C6.0496 8.16127 5.81114 8.06249 5.5625 8.06249ZM12.4375 8.06249C12.2521 8.06249 12.0708 8.11748 11.9167 8.22049C11.7625 8.3235 11.6423 8.46992 11.5714 8.64123C11.5004 8.81253 11.4818 9.00103 11.518 9.18289C11.5542 9.36475 11.6435 9.53179 11.7746 9.66291C11.9057 9.79402 12.0727 9.88331 12.2546 9.91948C12.4365 9.95565 12.625 9.93709 12.7963 9.86613C12.9676 9.79517 13.114 9.67501 13.217 9.52084C13.32 9.36667 13.375 9.18541 13.375 8.99999C13.375 8.75135 13.2762 8.5129 13.1004 8.33708C12.9246 8.16127 12.6861 8.06249 12.4375 8.06249ZM17.125 8.99999C17.1253 10.4028 16.7624 11.7817 16.0717 13.0026C15.381 14.2235 14.3859 15.2448 13.1834 15.967C11.9808 16.6893 10.6118 17.0879 9.20948 17.1241C7.80719 17.1602 6.41942 16.8327 5.18125 16.1734L2.52109 17.0601C2.30085 17.1336 2.0645 17.1443 1.83854 17.0909C1.61257 17.0376 1.40593 16.9224 1.24176 16.7582C1.07759 16.5941 0.962386 16.3874 0.909061 16.1615C0.855735 15.9355 0.866394 15.6991 0.939844 15.4789L1.82656 12.8187C1.24699 11.7291 0.923279 10.5217 0.879998 9.28825C0.836717 8.0548 1.075 6.82771 1.57677 5.7001C2.07854 4.57249 2.8306 3.57401 3.77587 2.78046C4.72114 1.9869 5.83478 1.41912 7.03224 1.12021C8.22971 0.821301 9.47953 0.799124 10.6868 1.05536C11.8942 1.3116 13.0272 1.83951 14.0001 2.59903C14.9729 3.35856 15.7599 4.32972 16.3014 5.43882C16.8428 6.54791 17.1245 7.76579 17.125 8.99999ZM15.875 8.99999C15.8747 7.9454 15.6318 6.90502 15.1651 5.95932C14.6983 5.01363 14.0203 4.18799 13.1834 3.54627C12.3466 2.90455 11.3733 2.46396 10.3389 2.25858C9.30449 2.0532 8.23671 2.08854 7.21815 2.36187C6.1996 2.63519 5.25757 3.13918 4.46496 3.83483C3.67235 4.53048 3.0504 5.39915 2.64724 6.37364C2.24407 7.34812 2.07048 8.40229 2.13992 9.45459C2.20935 10.5069 2.51994 11.5291 3.04766 12.4422C3.09195 12.5188 3.11945 12.604 3.12834 12.6921C3.13723 12.7802 3.1273 12.8692 3.09922 12.9531L2.125 15.875L5.04687 14.9008C5.11052 14.8791 5.17729 14.868 5.24453 14.868C5.3543 14.8682 5.46208 14.8973 5.55703 14.9523C6.60219 15.557 7.78817 15.8758 8.99566 15.8766C10.2031 15.8773 11.3895 15.5601 12.4354 14.9567C13.4814 14.3533 14.3499 13.4851 14.9537 12.4394C15.5575 11.3937 15.8753 10.2075 15.875 8.99999Z" 
        fill="#854EF6"
    />
</svg>